<svg width="34" height="24" viewBox="0 0 34 24" fill="none" xmlns="http://www.w3.org/2000/svg">
<path d="M34 16.282C34 17.349 33.797 18.352 33.392 19.294C33.0192 20.2017 32.48 21.0316 31.802 21.741C31.1035 22.4398 30.2781 22.9988 29.37 23.388C28.4432 23.8007 27.4385 24.0094 26.424 24C25.083 24 23.898 23.702 22.869 23.106C21.8714 22.5099 20.9981 21.7269 20.297 20.8C19.5948 19.7938 19.058 18.6817 18.707 17.506C18.366 16.264 18.1931 14.9819 18.193 13.694C18.193 12.282 18.38 10.886 18.753 9.506C19.128 8.126 19.658 6.839 20.343 5.647C21.0641 4.4502 21.9456 3.35772 22.963 2.4C23.9884 1.4297 25.155 0.620505 26.423 0L30.539 2.212C29.7108 3.05142 29.0027 4.00144 28.435 5.035C27.8836 6.06239 27.5944 7.21 27.593 8.376V8.8C28.4798 8.95079 29.3339 9.25322 30.118 9.694C30.898 10.134 31.568 10.682 32.129 11.341C32.7219 12.0001 33.1825 12.767 33.486 13.6C33.8298 14.4522 34.0043 15.3631 34 16.282ZM15.807 16.282C15.807 17.349 15.605 18.352 15.199 19.294C14.8262 20.2017 14.287 21.0316 13.609 21.741C12.9105 22.4397 12.0851 22.9987 11.177 23.388C10.2502 23.8007 9.24551 24.0094 8.231 24C6.891 24 5.706 23.702 4.677 23.106C3.67936 22.5099 2.80608 21.7269 2.105 20.8C1.40278 19.7938 0.866003 18.6817 0.515 17.506C0.173592 16.2641 0.00037949 14.982 0 13.694C0 12.282 0.187 10.886 0.561 9.506C0.935 8.126 1.465 6.839 2.151 5.647C2.87209 4.4502 3.75361 3.35772 4.771 2.4C5.79611 1.42982 6.96236 0.620632 8.23 0L12.346 2.212C11.5174 3.05136 10.809 4.00138 10.241 5.035C9.68962 6.06239 9.40039 7.21 9.399 8.376V8.8C10.2861 8.95068 11.1406 9.25311 11.925 9.694C12.705 10.134 13.375 10.682 13.935 11.341C14.5279 12.0001 14.9885 12.767 15.292 13.6C15.6358 14.4522 15.8113 15.3631 15.807 16.282Z" fill="#CD46B2"/>
</svg>
