<svg width="18" height="21" viewBox="0 0 18 21" fill="none" xmlns="http://www.w3.org/2000/svg">
<path fill-rule="evenodd" clip-rule="evenodd" d="M17.721 5.63263L17.7213 5.64964C17.8173 10.6748 17.9485 17.557 9.56905 20.4614C9.49484 20.4872 9.41728 20.5001 9.33981 20.5001C9.26233 20.5001 9.18486 20.4872 9.11056 20.4614C0.73171 17.5571 0.863124 10.6751 0.959078 5.65003C0.969439 5.10996 0.979146 4.59965 0.979146 4.10607C0.979146 3.71945 1.29258 3.40602 1.67919 3.40602C4.67289 3.40602 6.95198 2.54561 8.85182 0.698219C9.12354 0.433974 9.55608 0.43388 9.82788 0.698219C11.7279 2.54561 14.0073 3.40602 17.0012 3.40602C17.3879 3.40602 17.7013 3.71945 17.7013 4.10607C17.7013 4.59437 17.7109 5.09895 17.721 5.63263ZM2.35899 5.6767C2.26257 10.7282 2.15392 16.4467 9.3399 19.0571C16.5264 16.4466 16.4178 10.7279 16.3215 5.67624C16.3157 5.37325 16.3101 5.07961 16.3062 4.79165C13.5021 4.67339 11.2595 3.82362 9.3399 2.15153C7.42045 3.82362 5.17824 4.6733 2.3743 4.79165C2.37038 5.0797 2.36478 5.37353 2.35899 5.6767ZM8.37175 11.4468L11.7505 8.06819C12.0239 7.79479 12.4672 7.79489 12.7405 8.06828C13.0139 8.34158 13.0139 8.78485 12.7404 9.05825L8.86674 12.9319C8.73009 13.0685 8.55087 13.1368 8.37175 13.1368C8.19264 13.1368 8.01342 13.0685 7.87677 12.9319L5.93997 10.9951C5.66657 10.7217 5.66657 10.2785 5.93997 10.005C6.21327 9.7317 6.65654 9.7317 6.92993 10.005L8.37175 11.4468Z" fill="#7A8194"/>
</svg>
